<svg id="_ÎÓÈ_1" data-name="—ÎÓÈ_1" xmlns="http://www.w3.org/2000/svg" viewBox="0 0 416.22 450.49"><defs><style>.cls-1{fill:none;}.cls-2{fill:#8b5e3c;}.cls-3{fill:#333;}.cls-4{fill:#fdc153;}.cls-5{fill:#faae44;}.cls-6{fill:#e66255;}.cls-7{fill:#fa7564;}</style></defs><title>box-color</title><path class="cls-1" d="M600.76,336l0,0h0A28.11,28.11,0,1,0,561,296.23l-8,16-31.37,62.83h0.84l62.3-31.1Z" transform="translate(-290.39 -274.75)"/><path class="cls-1" d="M439,296.27v0h0A28.11,28.11,0,1,0,399.22,336l16,8,62.28,31.09h0.83L447,312.22Z" transform="translate(-290.39 -274.75)"/><rect class="cls-2" x="33.35" y="266.48" width="148.57" height="17.25"/><polygon class="cls-3" points="237.32 271.15 242.63 266.48 237.32 266.48 237.32 271.15"/><polygon class="cls-2" points="237.32 271.15 237.32 283.74 387.6 283.74 387.6 266.48 242.63 266.48 237.32 271.15"/><polygon class="cls-4" points="237.32 111.21 237.32 116.97 237.32 266.48 242.63 266.48 397.6 130.22 416.22 111.21 237.32 111.21"/><polygon class="cls-4" points="0 111.21 0 266.48 33.35 266.48 181.92 266.48 181.92 116.97 181.92 111.21 0 111.21"/><polygon class="cls-5" points="397.6 130.22 242.63 266.48 387.6 266.48 416.22 266.48 416.22 111.21 397.6 130.22"/><polygon class="cls-4" points="181.92 283.74 33.35 283.74 33.35 450.49 181.92 319.86 181.92 283.74"/><polygon class="cls-5" points="33.35 450.49 181.92 450.49 181.92 319.86 33.35 450.49"/><rect class="cls-5" x="237.32" y="283.73" width="150.28" height="166.75"/><polygon class="cls-6" points="231 100.89 232.13 100.33 231.28 100.33 231 100.89"/><polygon class="cls-6" points="181.92 109.94 181.92 111.21 184.76 111.21 181.92 109.94"/><polygon class="cls-6" points="237.32 111.21 237.32 109.95 234.49 111.21 237.32 111.21"/><polygon class="cls-6" points="188.24 100.88 187.96 100.33 187.12 100.33 188.24 100.88"/><polygon class="cls-6" points="237.32 283.74 237.32 271.15 223.01 283.74 237.32 283.74"/><polygon class="cls-6" points="223.01 283.74 181.92 319.86 181.92 450.49 237.32 450.49 237.32 283.74 223.01 283.74"/><path class="cls-7" d="M608.12,288.9c-17.18-17.18-43.25-19-58.22-4l-10.06,22.61-30.06,67.55H490.25l-30.09-67.59-10-22.52,0-.06h0c-15-15-41-13.2-58.22,4s-19,43.25-4,58.23l22.61,10.06,61.8,27.5,2.84,1.27h-2.84V594.61l41.08-36.12,14.31-12.58V386h-2.83l2.83-1.26,61.83-27.52,22.52-10,0.06,0v0C627.08,332.15,625.3,306.08,608.12,288.9ZM477.51,375.08L415.23,344l-16-8A28.11,28.11,0,1,1,439,296.24h0v0l8,15.95,31.39,62.86,0.28,0.56ZM600.8,336l0,0-15.95,8-62.3,31.1-1.13.57,0.28-.57L553,312.25l8-16A28.11,28.11,0,1,1,600.79,336h0Z" transform="translate(-290.39 -274.75)"/></svg>