<svg id="Layer_1" data-name="Layer 1" xmlns="http://www.w3.org/2000/svg" viewBox="0 0 215.65 224.98"><defs><style>.cls-1{fill:#ffcb05;}.cls-1,.cls-10,.cls-11,.cls-12,.cls-13,.cls-14,.cls-15,.cls-16,.cls-2,.cls-3,.cls-4,.cls-5,.cls-6,.cls-7,.cls-8,.cls-9{fill-rule:evenodd;}.cls-2{fill:#f8991d;}.cls-3{fill:#f15a22;}.cls-4{fill:#fff200;}.cls-5{fill:#faa21b;}.cls-6{fill:#fff;}.cls-7{fill:#ef3833;}.cls-8{fill:#0087ad;}.cls-9{fill:#df8a19;}.cls-10{fill:#d8511f;}.cls-11{fill:#ecda00;}.cls-12{fill:#e09218;}.cls-13{fill:#4ba7c8;}.cls-14{fill:#005b7e;}.cls-15{fill:#0d6d93;}.cls-16{fill:#005373;}</style></defs><title>photo-color</title><path class="cls-1" d="M392.76,181.27h54.78a5.81,5.81,0,0,1,5.79,5.79v14.3a5.81,5.81,0,0,1-5.79,5.79H392.76a5.81,5.81,0,0,1-5.79-5.79v-14.3a5.81,5.81,0,0,1,5.79-5.79h0Z" transform="translate(-312.33 -181.27)"/><path class="cls-2" d="M357.34,190.6H479.75A48.37,48.37,0,0,1,528,238.83V358a48.37,48.37,0,0,1-48.23,48.23H360.55A48.37,48.37,0,0,1,312.33,358V240.5c0-31.25,16.42-49.9,45-49.9h0Z" transform="translate(-312.33 -181.27)"/><path class="cls-3" d="M528,294.54v69.85a42,42,0,0,1-41.86,41.86H354.19a42,42,0,0,1-41.86-41.86V324.71a30.17,30.17,0,0,1,30.17-30.17H528Z" transform="translate(-312.33 -181.27)"/><polygon class="cls-4" points="215.65 106.14 215.65 117.15 0 117.15 0 106.14 215.65 106.14 215.65 106.14"/><polygon class="cls-5" points="215.65 128.16 215.65 117.15 0 117.15 0 128.16 215.65 128.16 215.65 128.16"/><path class="cls-6" d="M503.37,229.31a11,11,0,1,1,0-15.6,11.05,11.05,0,0,1,0,15.6h0Z" transform="translate(-312.33 -181.27)"/><path class="cls-7" d="M499.87,225.81a6.08,6.08,0,1,1,0-8.6,6.09,6.09,0,0,1,0,8.6h0Z" transform="translate(-312.33 -181.27)"/><path class="cls-1" d="M337.93,210.49h31.92a3.52,3.52,0,0,1,3.51,3.51v12.28a3.52,3.52,0,0,1-3.51,3.51H337.93a3.52,3.52,0,0,1-3.51-3.51V214a3.52,3.52,0,0,1,3.51-3.51h0Z" transform="translate(-312.33 -181.27)"/><polygon class="cls-8" points="27.48 34.6 55.65 34.6 55.65 43.12 27.48 43.12 27.48 34.6 27.48 34.6"/><path class="cls-9" d="M528,310.88V366a40.35,40.35,0,0,1-40.23,40.23H444.43a28.54,28.54,0,0,1-20.18-8.36l-51.78-51.78a67.44,67.44,0,1,1,95.37-95.37L528,310.88h0Z" transform="translate(-312.33 -181.27)"/><path class="cls-10" d="M528,310.88v54.25a41.24,41.24,0,0,1-41.12,41.12H445.1a30.16,30.16,0,0,1-21.32-8.83l-51.31-51.31-0.42-.42c-18.67-19-5-51.15,21.66-51.15H499.14a30.16,30.16,0,0,1,21.32,8.83l7.51,7.51h0Z" transform="translate(-312.33 -181.27)"/><path class="cls-11" d="M515.52,298.43H352.77a68.07,68.07,0,0,1,.9-11H504.51l11,11h0Z" transform="translate(-312.33 -181.27)"/><path class="cls-12" d="M515.52,298.43H352.77a68.06,68.06,0,0,0,.9,11H526.53l-11-11h0Z" transform="translate(-312.33 -181.27)"/><path class="cls-13" d="M467.84,346.11a67.44,67.44,0,1,1,0-95.37,67.57,67.57,0,0,1,0,95.37h0Z" transform="translate(-312.33 -181.27)"/><path class="cls-14" d="M464.21,342.49a62.31,62.31,0,1,1,0-88.12,62.43,62.43,0,0,1,0,88.12h0Z" transform="translate(-312.33 -181.27)"/><path class="cls-8" d="M451.87,330.15a44.86,44.86,0,1,1,0-63.44,44.95,44.95,0,0,1,0,63.44h0Z" transform="translate(-312.33 -181.27)"/><path class="cls-15" d="M435.91,314.19a22.29,22.29,0,1,1,0-31.52,22.33,22.33,0,0,1,0,31.52h0Z" transform="translate(-312.33 -181.27)"/><path class="cls-16" d="M425.11,303.39a7,7,0,1,1,0-9.92,7,7,0,0,1,0,9.92h0Z" transform="translate(-312.33 -181.27)"/><path class="cls-6" d="M408.82,287.09a9.61,9.61,0,1,1,0-13.6,9.63,9.63,0,0,1,0,13.6h0Z" transform="translate(-312.33 -181.27)"/></svg>